<?xml version="1.0" encoding="utf-8"?>
<svg viewBox="0 0 500 500" xmlns="http://www.w3.org/2000/svg">
  <path d="M 473.728 236.586 L 274.331 37.206 C 269.004 31.89 261.648 28.602 253.517 28.602 C 245.389 28.602 238.033 31.89 232.702 37.206 L 191.394 78.591 L 243.908 131.11 C 247.259 129.936 251.111 129.266 255.132 129.266 C 274.456 129.266 290.109 144.919 290.109 164.241 C 290.109 168.339 289.407 172.25 288.114 175.906 L 288.189 175.661 L 338.774 226.276 C 342.154 225.073 346.065 224.375 350.133 224.375 C 369.438 224.375 385.093 240.027 385.093 259.333 C 385.093 278.641 369.438 294.293 350.133 294.293 C 330.823 294.293 315.17 278.641 315.17 259.333 C 315.17 254.568 316.13 250.03 317.85 245.888 L 317.761 246.119 L 270.405 199.005 L 270.405 323.165 C 282.037 329.024 289.879 340.874 289.879 354.548 C 289.879 373.886 274.195 389.568 254.858 389.568 C 235.52 389.568 219.836 373.886 219.836 354.548 C 219.836 344.893 223.734 336.168 230.052 329.835 C 233.267 326.621 237.087 324.016 241.336 322.189 L 241.564 322.1 L 241.564 196.72 C 228.743 191.331 219.912 178.86 219.912 164.349 C 219.912 159.476 220.901 154.847 222.697 150.63 L 222.608 150.857 L 171.005 99.011 L 34.267 235.656 C 28.968 241 25.71 248.355 25.71 256.484 C 25.71 264.619 28.983 271.971 34.283 277.318 L 233.694 476.665 C 239.007 481.995 246.361 485.283 254.492 485.283 C 262.622 485.283 269.963 481.995 275.293 476.665 L 473.757 278.2 C 479.087 272.884 482.392 265.514 482.392 257.4 C 482.392 249.285 479.087 241.915 473.757 236.599 L 473.728 236.586 Z" style="fill: rgb(173, 162, 255);"/>
  <g transform="matrix(0.4756140410900116, 0, 0, 0.4756140410900116, -5.714479923248291, 3.0501239299773886)" style="">
    <path class="st0" d="M247.355,106.9C222.705,82.241,205.833,39.18,197.46,0c-8.386,39.188-25.24,82.258-49.899,106.917&#10;&#9;&#9;c-24.65,24.642-67.724,41.514-106.896,49.904c39.188,8.373,82.254,25.235,106.904,49.895c24.65,24.65,41.522,67.72,49.908,106.9&#10;&#9;&#9;c8.373-39.188,25.24-82.258,49.886-106.917c24.65-24.65,67.724-41.514,106.896-49.904&#10;&#9;&#9;C315.08,148.422,272.014,131.551,247.355,106.9z" style="fill: rgb(255, 255, 255);"/>
    <path class="st0" d="M407.471,304.339c-14.714-14.721-24.81-40.46-29.812-63.864c-5.011,23.404-15.073,49.142-29.803,63.872&#10;&#9;&#9;c-14.73,14.714-40.464,24.801-63.864,29.812c23.408,5.01,49.134,15.081,63.864,29.811c14.73,14.722,24.81,40.46,29.82,63.864&#10;&#9;&#9;c5.001-23.413,15.081-49.142,29.802-63.872c14.722-14.722,40.46-24.802,63.856-29.82&#10;&#9;&#9;C447.939,329.14,422.201,319.061,407.471,304.339z" style="fill: rgb(255, 255, 255);"/>
    <path class="st0" d="M146.352,354.702c-4.207,19.648-12.655,41.263-25.019,53.626c-12.362,12.354-33.968,20.82-53.613,25.027&#10;&#9;&#9;c19.645,4.216,41.251,12.656,53.613,25.027c12.364,12.362,20.829,33.96,25.036,53.618c4.203-19.658,12.655-41.255,25.023-53.626&#10;&#9;&#9;c12.354-12.362,33.964-20.82,53.605-25.035c-19.64-4.2-41.251-12.656-53.613-25.019&#10;&#9;&#9;C159.024,395.966,150.555,374.351,146.352,354.702z" style="fill: rgb(255, 255, 255);"/>
  </g>
</svg>