<?xml version="1.0" encoding="utf-8"?>
<svg viewBox="0 0 500 500" xmlns="http://www.w3.org/2000/svg">
  <path d="M 490.514 227.713 L 272.204 9.421 C 266.372 3.601 258.317 0.001 249.415 0.001 C 240.516 0.001 232.463 3.601 226.627 9.421 L 181.4 54.732 L 238.894 112.232 C 242.564 110.947 246.782 110.213 251.183 110.213 C 272.34 110.213 289.479 127.351 289.479 148.506 C 289.479 152.992 288.709 157.275 287.294 161.277 L 287.376 161.009 L 342.759 216.425 C 346.461 215.108 350.742 214.344 355.196 214.344 C 376.331 214.344 393.472 231.481 393.472 252.618 C 393.472 273.758 376.331 290.894 355.196 290.894 C 334.055 290.894 316.917 273.758 316.917 252.618 C 316.917 247.401 317.967 242.432 319.85 237.897 L 319.753 238.15 L 267.905 186.568 L 267.905 322.505 C 280.641 328.919 289.226 341.893 289.226 356.864 C 289.226 378.037 272.054 395.207 250.884 395.207 C 229.711 395.207 212.54 378.037 212.54 356.864 C 212.54 346.293 216.807 336.741 223.725 329.807 C 227.245 326.289 231.427 323.436 236.079 321.436 L 236.328 321.338 L 236.328 184.065 C 222.292 178.166 212.623 164.512 212.623 148.624 C 212.623 143.29 213.705 138.221 215.672 133.605 L 215.575 133.852 L 159.076 77.088 L 9.368 226.695 C 3.567 232.546 0 240.599 0 249.498 C 0 258.405 3.584 266.455 9.387 272.309 L 227.712 490.565 C 233.528 496.4 241.581 500 250.483 500 C 259.384 500 267.42 496.4 273.258 490.565 L 490.547 273.274 C 496.382 267.454 500 259.385 500 250.502 C 500 241.617 496.382 233.547 490.547 227.727 L 490.514 227.713 Z" style="fill: rgb(173, 162, 255);"/>
  <g transform="matrix(0.4756140410900116, 0, 0, 0.4756140410900116, -19.34084701538086, -0.000002000000222324161)" style="">
    <path class="st0" d="M247.355,106.9C222.705,82.241,205.833,39.18,197.46,0c-8.386,39.188-25.24,82.258-49.899,106.917&#10;&#9;&#9;c-24.65,24.642-67.724,41.514-106.896,49.904c39.188,8.373,82.254,25.235,106.904,49.895c24.65,24.65,41.522,67.72,49.908,106.9&#10;&#9;&#9;c8.373-39.188,25.24-82.258,49.886-106.917c24.65-24.65,67.724-41.514,106.896-49.904&#10;&#9;&#9;C315.08,148.422,272.014,131.551,247.355,106.9z" style="fill: rgb(255, 255, 255);"/>
    <path class="st0" d="M407.471,304.339c-14.714-14.721-24.81-40.46-29.812-63.864c-5.011,23.404-15.073,49.142-29.803,63.872&#10;&#9;&#9;c-14.73,14.714-40.464,24.801-63.864,29.812c23.408,5.01,49.134,15.081,63.864,29.811c14.73,14.722,24.81,40.46,29.82,63.864&#10;&#9;&#9;c5.001-23.413,15.081-49.142,29.802-63.872c14.722-14.722,40.46-24.802,63.856-29.82&#10;&#9;&#9;C447.939,329.14,422.201,319.061,407.471,304.339z" style="fill: rgb(255, 255, 255);"/>
    <path class="st0" d="M146.352,354.702c-4.207,19.648-12.655,41.263-25.019,53.626c-12.362,12.354-33.968,20.82-53.613,25.027&#10;&#9;&#9;c19.645,4.216,41.251,12.656,53.613,25.027c12.364,12.362,20.829,33.96,25.036,53.618c4.203-19.658,12.655-41.255,25.023-53.626&#10;&#9;&#9;c12.354-12.362,33.964-20.82,53.605-25.035c-19.64-4.2-41.251-12.656-53.613-25.019&#10;&#9;&#9;C159.024,395.966,150.555,374.351,146.352,354.702z" style="fill: rgb(255, 255, 255);"/>
  </g>
</svg>