<?xml version="1.0" encoding="utf-8"?>
<svg viewBox="0 0 500 500" xmlns="http://www.w3.org/2000/svg">
  <path d="M 467.688 241.185 L 268.291 41.805 C 262.964 36.489 255.608 33.201 247.477 33.201 C 239.349 33.201 231.993 36.489 226.662 41.805 L 185.354 83.19 L 237.868 135.709 C 241.219 134.535 245.071 133.865 249.092 133.865 C 268.416 133.865 284.069 149.518 284.069 168.84 C 284.069 172.938 283.367 176.849 282.074 180.505 L 282.149 180.26 L 332.734 230.875 C 336.114 229.672 340.025 228.974 344.093 228.974 C 363.398 228.974 379.053 244.626 379.053 263.932 C 379.053 283.24 363.398 298.892 344.093 298.892 C 324.783 298.892 309.13 283.24 309.13 263.932 C 309.13 259.167 310.09 254.629 311.81 250.487 L 311.721 250.718 L 264.365 203.604 L 264.365 327.764 C 275.997 333.623 283.839 345.473 283.839 359.147 C 283.839 378.485 268.155 394.167 248.818 394.167 C 229.48 394.167 213.796 378.485 213.796 359.147 C 213.796 349.492 217.694 340.767 224.012 334.434 C 227.227 331.22 231.047 328.615 235.296 326.788 L 235.524 326.699 L 235.524 201.319 C 222.703 195.93 213.872 183.459 213.872 168.948 C 213.872 164.075 214.861 159.446 216.657 155.229 L 216.568 155.456 L 164.965 103.61 L 28.227 240.255 C 22.928 245.599 19.67 252.954 19.67 261.083 C 19.67 269.218 22.943 276.57 28.243 281.917 L 227.654 481.264 C 232.967 486.594 240.321 489.882 248.452 489.882 C 256.582 489.882 263.923 486.594 269.253 481.264 L 467.717 282.799 C 473.047 277.483 476.352 270.113 476.352 261.999 C 476.352 253.884 473.047 246.514 467.717 241.198 L 467.688 241.185 Z" style="fill: rgb(173, 162, 255);"/>
  <g transform="matrix(0.4756140410900116, 0, 0, 0.4756140410900116, -11.75432300567627, 7.649263858795166)" style="">
    <path class="st0" d="M247.355,106.9C222.705,82.241,205.833,39.18,197.46,0c-8.386,39.188-25.24,82.258-49.899,106.917&#10;&#9;&#9;c-24.65,24.642-67.724,41.514-106.896,49.904c39.188,8.373,82.254,25.235,106.904,49.895c24.65,24.65,41.522,67.72,49.908,106.9&#10;&#9;&#9;c8.373-39.188,25.24-82.258,49.886-106.917c24.65-24.65,67.724-41.514,106.896-49.904&#10;&#9;&#9;C315.08,148.422,272.014,131.551,247.355,106.9z" style="fill: rgb(220, 216, 255);"/>
    <path class="st0" d="M407.471,304.339c-14.714-14.721-24.81-40.46-29.812-63.864c-5.011,23.404-15.073,49.142-29.803,63.872&#10;&#9;&#9;c-14.73,14.714-40.464,24.801-63.864,29.812c23.408,5.01,49.134,15.081,63.864,29.811c14.73,14.722,24.81,40.46,29.82,63.864&#10;&#9;&#9;c5.001-23.413,15.081-49.142,29.802-63.872c14.722-14.722,40.46-24.802,63.856-29.82&#10;&#9;&#9;C447.939,329.14,422.201,319.061,407.471,304.339z" style="fill: rgb(220, 216, 255);"/>
    <path class="st0" d="M146.352,354.702c-4.207,19.648-12.655,41.263-25.019,53.626c-12.362,12.354-33.968,20.82-53.613,25.027&#10;&#9;&#9;c19.645,4.216,41.251,12.656,53.613,25.027c12.364,12.362,20.829,33.96,25.036,53.618c4.203-19.658,12.655-41.255,25.023-53.626&#10;&#9;&#9;c12.354-12.362,33.964-20.82,53.605-25.035c-19.64-4.2-41.251-12.656-53.613-25.019&#10;&#9;&#9;C159.024,395.966,150.555,374.351,146.352,354.702z" style="fill: rgb(220, 216, 255);"/>
  </g>
</svg>